<svg xmlns="http://www.w3.org/2000/svg" xmlns:xlink="http://www.w3.org/1999/xlink" width="500" zoomAndPan="magnify" viewBox="0 0 375 74.999997" height="100" preserveAspectRatio="xMidYMid meet" version="1.0"><defs><g/></defs><g fill="#ad2b49" fill-opacity="1"><g transform="translate(0.87598, 47.945712)"><g><path d="M 17.671875 -4.75 L 2.265625 -13.140625 L 2.265625 -17.84375 L 17.671875 -26.234375 L 19.109375 -23.234375 L 4.53125 -15.484375 L 19.109375 -7.75 Z M 17.671875 -4.75 "/></g></g></g><g fill="#ffffff" fill-opacity="1"><g transform="translate(22.257055, 47.945712)"><g><path d="M 2.265625 9.515625 L 2.265625 -22.875 L 5.25 -22.875 L 5.609375 -18.9375 L 5.65625 -18.9375 C 6.625 -20.445312 7.867188 -21.628906 9.390625 -22.484375 C 10.921875 -23.347656 12.648438 -23.78125 14.578125 -23.78125 C 16.816406 -23.78125 18.8125 -23.242188 20.5625 -22.171875 C 22.3125 -21.097656 23.691406 -19.632812 24.703125 -17.78125 C 25.722656 -15.925781 26.234375 -13.804688 26.234375 -11.421875 C 26.234375 -9.054688 25.722656 -6.945312 24.703125 -5.09375 C 23.691406 -3.238281 22.316406 -1.773438 20.578125 -0.703125 C 18.847656 0.367188 16.863281 0.90625 14.625 0.90625 C 12.726562 0.90625 11.023438 0.492188 9.515625 -0.328125 C 8.003906 -1.160156 6.75 -2.320312 5.75 -3.8125 L 5.703125 -3.8125 L 5.703125 9.515625 Z M 14.171875 -2.265625 C 15.835938 -2.265625 17.3125 -2.671875 18.59375 -3.484375 C 19.875 -4.296875 20.882812 -5.390625 21.625 -6.765625 C 22.363281 -8.140625 22.734375 -9.691406 22.734375 -11.421875 C 22.734375 -13.203125 22.363281 -14.773438 21.625 -16.140625 C 20.882812 -17.515625 19.875 -18.601562 18.59375 -19.40625 C 17.3125 -20.207031 15.835938 -20.609375 14.171875 -20.609375 C 12.546875 -20.609375 11.082031 -20.195312 9.78125 -19.375 C 8.488281 -18.5625 7.46875 -17.46875 6.71875 -16.09375 C 5.976562 -14.726562 5.609375 -13.171875 5.609375 -11.421875 C 5.609375 -9.691406 5.976562 -8.140625 6.71875 -6.765625 C 7.46875 -5.390625 8.488281 -4.296875 9.78125 -3.484375 C 11.082031 -2.671875 12.546875 -2.265625 14.171875 -2.265625 Z M 14.171875 -2.265625 "/></g></g></g><g fill="#ad2b49" fill-opacity="1"><g transform="translate(49.840274, 47.945712)"><g><path d="M 3.71875 -26.234375 L 19.109375 -17.84375 L 19.109375 -13.140625 L 3.71875 -4.75 L 2.265625 -7.75 L 16.84375 -15.484375 L 2.265625 -23.234375 Z M 3.71875 -26.234375 "/></g></g></g><g fill="#ffffff" fill-opacity="1"><g transform="translate(71.221349, 47.945712)"><g><path d="M 14 0.90625 C 11.582031 0.90625 9.414062 0.363281 7.5 -0.71875 C 5.582031 -1.8125 4.078125 -3.304688 2.984375 -5.203125 C 1.898438 -7.109375 1.359375 -9.269531 1.359375 -11.6875 C 1.359375 -14.039062 1.851562 -16.125 2.84375 -17.9375 C 3.84375 -19.75 5.222656 -21.175781 6.984375 -22.21875 C 8.753906 -23.257812 10.773438 -23.78125 13.046875 -23.78125 C 15.273438 -23.78125 17.21875 -23.257812 18.875 -22.21875 C 20.539062 -21.175781 21.84375 -19.738281 22.78125 -17.90625 C 23.71875 -16.082031 24.203125 -13.992188 24.234375 -11.640625 C 24.234375 -11.429688 24.234375 -11.210938 24.234375 -10.984375 C 24.234375 -10.753906 24.21875 -10.519531 24.1875 -10.28125 L 4.9375 -10.28125 C 5.113281 -8.707031 5.609375 -7.3125 6.421875 -6.09375 C 7.242188 -4.875 8.3125 -3.921875 9.625 -3.234375 C 10.9375 -2.554688 12.410156 -2.21875 14.046875 -2.21875 C 15.828125 -2.21875 17.425781 -2.628906 18.84375 -3.453125 C 20.257812 -4.285156 21.285156 -5.320312 21.921875 -6.5625 L 24.90625 -5.34375 C 24.425781 -4.132812 23.648438 -3.050781 22.578125 -2.09375 C 21.503906 -1.144531 20.234375 -0.410156 18.765625 0.109375 C 17.304688 0.640625 15.71875 0.90625 14 0.90625 Z M 4.984375 -13.3125 L 20.5625 -13.3125 C 20.351562 -15.644531 19.5625 -17.441406 18.1875 -18.703125 C 16.8125 -19.972656 15.082031 -20.609375 13 -20.609375 C 10.882812 -20.609375 9.101562 -19.9375 7.65625 -18.59375 C 6.207031 -17.25 5.316406 -15.488281 4.984375 -13.3125 Z M 4.984375 -13.3125 "/></g></g></g><g fill="#ffffff" fill-opacity="1"><g transform="translate(97.212272, 47.945712)"><g><path d="M 13 0.90625 C 10.757812 0.90625 8.765625 0.367188 7.015625 -0.703125 C 5.265625 -1.773438 3.882812 -3.238281 2.875 -5.09375 C 1.863281 -6.945312 1.359375 -9.054688 1.359375 -11.421875 C 1.359375 -13.804688 1.851562 -15.925781 2.84375 -17.78125 C 3.84375 -19.632812 5.21875 -21.097656 6.96875 -22.171875 C 8.726562 -23.242188 10.722656 -23.78125 12.953125 -23.78125 C 14.859375 -23.78125 16.566406 -23.363281 18.078125 -22.53125 C 19.585938 -21.707031 20.820312 -20.539062 21.78125 -19.03125 L 21.828125 -19.03125 L 21.828125 -33.296875 L 25.328125 -33.296875 L 25.328125 0 L 22.28125 0 L 21.96875 -3.9375 L 21.921875 -3.9375 C 20.953125 -2.425781 19.695312 -1.238281 18.15625 -0.375 C 16.625 0.476562 14.90625 0.90625 13 0.90625 Z M 13.40625 -2.21875 C 15.070312 -2.21875 16.546875 -2.625 17.828125 -3.4375 C 19.109375 -4.257812 20.117188 -5.363281 20.859375 -6.75 C 21.597656 -8.132812 21.96875 -9.691406 21.96875 -11.421875 C 21.96875 -13.171875 21.597656 -14.726562 20.859375 -16.09375 C 20.117188 -17.46875 19.109375 -18.5625 17.828125 -19.375 C 16.546875 -20.195312 15.070312 -20.609375 13.40625 -20.609375 C 11.75 -20.609375 10.269531 -20.195312 8.96875 -19.375 C 7.664062 -18.5625 6.644531 -17.46875 5.90625 -16.09375 C 5.164062 -14.726562 4.796875 -13.171875 4.796875 -11.421875 C 4.796875 -9.660156 5.171875 -8.085938 5.921875 -6.703125 C 6.679688 -5.316406 7.710938 -4.222656 9.015625 -3.421875 C 10.316406 -2.617188 11.78125 -2.21875 13.40625 -2.21875 Z M 13.40625 -2.21875 "/></g></g></g><g fill="#ffffff" fill-opacity="1"><g transform="translate(124.788, 47.945712)"><g><path d="M 12.1875 -23.828125 C 14.144531 -23.828125 15.75 -23.207031 17 -21.96875 C 18.257812 -20.726562 18.992188 -18.960938 19.203125 -16.671875 L 16.21875 -15.671875 C 16.03125 -17.273438 15.535156 -18.5 14.734375 -19.34375 C 13.941406 -20.1875 12.925781 -20.609375 11.6875 -20.609375 C 9.84375 -20.609375 8.382812 -19.898438 7.3125 -18.484375 C 6.238281 -17.066406 5.703125 -15.101562 5.703125 -12.59375 L 5.703125 0 L 2.265625 0 L 2.265625 -22.875 L 5.203125 -22.875 L 5.53125 -19.296875 L 5.578125 -19.296875 C 6.203125 -20.679688 7.097656 -21.78125 8.265625 -22.59375 C 9.429688 -23.414062 10.738281 -23.828125 12.1875 -23.828125 Z M 12.1875 -23.828125 "/></g></g></g><g fill="#ffffff" fill-opacity="1"><g transform="translate(144.892472, 47.945712)"><g><path d="M 13.546875 0.90625 C 11.097656 0.90625 8.957031 0.394531 7.125 -0.625 C 5.300781 -1.65625 3.882812 -3.09375 2.875 -4.9375 C 1.863281 -6.78125 1.359375 -8.941406 1.359375 -11.421875 C 1.359375 -13.921875 1.863281 -16.09375 2.875 -17.9375 C 3.882812 -19.78125 5.300781 -21.210938 7.125 -22.234375 C 8.957031 -23.265625 11.097656 -23.78125 13.546875 -23.78125 C 16.023438 -23.78125 18.175781 -23.265625 20 -22.234375 C 21.820312 -21.210938 23.238281 -19.78125 24.25 -17.9375 C 25.269531 -16.09375 25.78125 -13.921875 25.78125 -11.421875 C 25.78125 -8.941406 25.269531 -6.78125 24.25 -4.9375 C 23.238281 -3.09375 21.820312 -1.65625 20 -0.625 C 18.175781 0.394531 16.023438 0.90625 13.546875 0.90625 Z M 13.546875 -2.21875 C 16.203125 -2.21875 18.320312 -3.054688 19.90625 -4.734375 C 21.488281 -6.410156 22.28125 -8.640625 22.28125 -11.421875 C 22.28125 -14.191406 21.488281 -16.414062 19.90625 -18.09375 C 18.320312 -19.769531 16.203125 -20.609375 13.546875 -20.609375 C 10.890625 -20.609375 8.765625 -19.769531 7.171875 -18.09375 C 5.585938 -16.414062 4.796875 -14.191406 4.796875 -11.421875 C 4.796875 -8.640625 5.585938 -6.410156 7.171875 -4.734375 C 8.765625 -3.054688 10.890625 -2.21875 13.546875 -2.21875 Z M 13.546875 -2.21875 "/></g></g></g><g fill="#ffffff" fill-opacity="1"><g transform="translate(172.015398, 47.945712)"><g/></g></g><g fill="#ffffff" fill-opacity="1"><g transform="translate(184.331657, 47.945712)"><g><path d="M 9.515625 0 L 0.5 -22.875 L 4.171875 -22.875 L 11.78125 -3.03125 L 11.828125 -3.03125 L 19.4375 -22.875 L 23.0625 -22.875 L 14 0 Z M 9.515625 0 "/></g></g></g><g fill="#ffffff" fill-opacity="1"><g transform="translate(207.832161, 47.945712)"><g><path d="M 4.34375 -27.3125 C 3.59375 -27.3125 2.984375 -27.546875 2.515625 -28.015625 C 2.046875 -28.484375 1.8125 -29.09375 1.8125 -29.84375 C 1.8125 -30.601562 2.046875 -31.207031 2.515625 -31.65625 C 2.984375 -32.113281 3.59375 -32.34375 4.34375 -32.34375 C 5.101562 -32.34375 5.722656 -32.113281 6.203125 -31.65625 C 6.691406 -31.207031 6.9375 -30.601562 6.9375 -29.84375 C 6.9375 -29.09375 6.691406 -28.484375 6.203125 -28.015625 C 5.722656 -27.546875 5.101562 -27.3125 4.34375 -27.3125 Z M 2.578125 0 L 2.578125 -22.875 L 6.03125 -22.875 L 6.03125 0 Z M 2.578125 0 "/></g></g></g><g fill="#ffffff" fill-opacity="1"><g transform="translate(216.571265, 47.945712)"><g><path d="M 12.1875 -23.828125 C 14.144531 -23.828125 15.75 -23.207031 17 -21.96875 C 18.257812 -20.726562 18.992188 -18.960938 19.203125 -16.671875 L 16.21875 -15.671875 C 16.03125 -17.273438 15.535156 -18.5 14.734375 -19.34375 C 13.941406 -20.1875 12.925781 -20.609375 11.6875 -20.609375 C 9.84375 -20.609375 8.382812 -19.898438 7.3125 -18.484375 C 6.238281 -17.066406 5.703125 -15.101562 5.703125 -12.59375 L 5.703125 0 L 2.265625 0 L 2.265625 -22.875 L 5.203125 -22.875 L 5.53125 -19.296875 L 5.578125 -19.296875 C 6.203125 -20.679688 7.097656 -21.78125 8.265625 -22.59375 C 9.429688 -23.414062 10.738281 -23.828125 12.1875 -23.828125 Z M 12.1875 -23.828125 "/></g></g></g><g fill="#ffffff" fill-opacity="1"><g transform="translate(236.675737, 47.945712)"><g><path d="M 12.1875 10.421875 C 10.40625 10.421875 8.679688 10.160156 7.015625 9.640625 C 5.359375 9.128906 3.882812 8.410156 2.59375 7.484375 C 1.3125 6.566406 0.296875 5.503906 -0.453125 4.296875 L 2.21875 2.03125 C 3.125 3.601562 4.472656 4.875 6.265625 5.84375 C 8.066406 6.8125 10.007812 7.296875 12.09375 7.296875 C 14 7.296875 15.648438 6.914062 17.046875 6.15625 C 18.453125 5.40625 19.546875 4.347656 20.328125 2.984375 C 21.117188 1.628906 21.515625 0.03125 21.515625 -1.8125 L 21.515625 -4.34375 L 21.46875 -4.34375 C 20.5625 -2.925781 19.289062 -1.800781 17.65625 -0.96875 C 16.03125 -0.144531 14.414062 0.265625 12.8125 0.265625 C 10.582031 0.265625 8.601562 -0.226562 6.875 -1.21875 C 5.15625 -2.21875 3.8125 -3.613281 2.84375 -5.40625 C 1.882812 -7.207031 1.40625 -9.269531 1.40625 -11.59375 C 1.40625 -14.007812 1.882812 -16.125 2.84375 -17.9375 C 3.8125 -19.75 5.15625 -21.160156 6.875 -22.171875 C 8.601562 -23.179688 10.582031 -23.6875 12.8125 -23.6875 C 14.476562 -23.6875 16.109375 -23.265625 17.703125 -22.421875 C 19.304688 -21.578125 20.578125 -20.488281 21.515625 -19.15625 L 21.5625 -19.15625 L 21.921875 -22.875 L 25 -22.875 L 25 -1.8125 C 25 0.664062 24.460938 2.816406 23.390625 4.640625 C 22.316406 6.472656 20.820312 7.894531 18.90625 8.90625 C 16.988281 9.914062 14.75 10.421875 12.1875 10.421875 Z M 13.265625 -2.859375 C 14.929688 -2.859375 16.390625 -3.238281 17.640625 -4 C 18.890625 -4.769531 19.867188 -5.8125 20.578125 -7.125 C 21.296875 -8.445312 21.65625 -9.9375 21.65625 -11.59375 C 21.65625 -13.3125 21.296875 -14.847656 20.578125 -16.203125 C 19.867188 -17.566406 18.890625 -18.640625 17.640625 -19.421875 C 16.390625 -20.210938 14.929688 -20.609375 13.265625 -20.609375 C 11.609375 -20.609375 10.144531 -20.226562 8.875 -19.46875 C 7.601562 -18.71875 6.613281 -17.660156 5.90625 -16.296875 C 5.195312 -14.941406 4.84375 -13.375 4.84375 -11.59375 C 4.84375 -9.875 5.195312 -8.359375 5.90625 -7.046875 C 6.613281 -5.734375 7.601562 -4.707031 8.875 -3.96875 C 10.144531 -3.226562 11.609375 -2.859375 13.265625 -2.859375 Z M 13.265625 -2.859375 "/></g></g></g><g fill="#ffffff" fill-opacity="1"><g transform="translate(263.934508, 47.945712)"><g><path d="M 4.34375 -27.3125 C 3.59375 -27.3125 2.984375 -27.546875 2.515625 -28.015625 C 2.046875 -28.484375 1.8125 -29.09375 1.8125 -29.84375 C 1.8125 -30.601562 2.046875 -31.207031 2.515625 -31.65625 C 2.984375 -32.113281 3.59375 -32.34375 4.34375 -32.34375 C 5.101562 -32.34375 5.722656 -32.113281 6.203125 -31.65625 C 6.691406 -31.207031 6.9375 -30.601562 6.9375 -29.84375 C 6.9375 -29.09375 6.691406 -28.484375 6.203125 -28.015625 C 5.722656 -27.546875 5.101562 -27.3125 4.34375 -27.3125 Z M 2.578125 0 L 2.578125 -22.875 L 6.03125 -22.875 L 6.03125 0 Z M 2.578125 0 "/></g></g></g><g fill="#ffffff" fill-opacity="1"><g transform="translate(272.673624, 47.945712)"><g><path d="M 2.265625 0 L 2.265625 -33.296875 L 5.703125 -33.296875 L 5.703125 0 Z M 2.265625 0 "/></g></g></g><g fill="#ffffff" fill-opacity="1"><g transform="translate(280.642982, 47.945712)"><g><path d="M 4.34375 -27.3125 C 3.59375 -27.3125 2.984375 -27.546875 2.515625 -28.015625 C 2.046875 -28.484375 1.8125 -29.09375 1.8125 -29.84375 C 1.8125 -30.601562 2.046875 -31.207031 2.515625 -31.65625 C 2.984375 -32.113281 3.59375 -32.34375 4.34375 -32.34375 C 5.101562 -32.34375 5.722656 -32.113281 6.203125 -31.65625 C 6.691406 -31.207031 6.9375 -30.601562 6.9375 -29.84375 C 6.9375 -29.09375 6.691406 -28.484375 6.203125 -28.015625 C 5.722656 -27.546875 5.101562 -27.3125 4.34375 -27.3125 Z M 2.578125 0 L 2.578125 -22.875 L 6.03125 -22.875 L 6.03125 0 Z M 2.578125 0 "/></g></g></g><g fill="#ffffff" fill-opacity="1"><g transform="translate(289.382097, 47.945712)"><g><path d="M 13.546875 0.90625 C 11.097656 0.90625 8.957031 0.394531 7.125 -0.625 C 5.300781 -1.65625 3.882812 -3.09375 2.875 -4.9375 C 1.863281 -6.78125 1.359375 -8.941406 1.359375 -11.421875 C 1.359375 -13.921875 1.863281 -16.09375 2.875 -17.9375 C 3.882812 -19.78125 5.300781 -21.210938 7.125 -22.234375 C 8.957031 -23.265625 11.097656 -23.78125 13.546875 -23.78125 C 16.023438 -23.78125 18.175781 -23.265625 20 -22.234375 C 21.820312 -21.210938 23.238281 -19.78125 24.25 -17.9375 C 25.269531 -16.09375 25.78125 -13.921875 25.78125 -11.421875 C 25.78125 -8.941406 25.269531 -6.78125 24.25 -4.9375 C 23.238281 -3.09375 21.820312 -1.65625 20 -0.625 C 18.175781 0.394531 16.023438 0.90625 13.546875 0.90625 Z M 13.546875 -2.21875 C 16.203125 -2.21875 18.320312 -3.054688 19.90625 -4.734375 C 21.488281 -6.410156 22.28125 -8.640625 22.28125 -11.421875 C 22.28125 -14.191406 21.488281 -16.414062 19.90625 -18.09375 C 18.320312 -19.769531 16.203125 -20.609375 13.546875 -20.609375 C 10.890625 -20.609375 8.765625 -19.769531 7.171875 -18.09375 C 5.585938 -16.414062 4.796875 -14.191406 4.796875 -11.421875 C 4.796875 -8.640625 5.585938 -6.410156 7.171875 -4.734375 C 8.765625 -3.054688 10.890625 -2.21875 13.546875 -2.21875 Z M 13.546875 -2.21875 "/></g></g></g><g fill="#ad2b49" fill-opacity="1"><g transform="translate(316.509144, 47.945712)"><g><path d="M 17.671875 -4.75 L 2.265625 -13.140625 L 2.265625 -17.84375 L 17.671875 -26.234375 L 19.109375 -23.234375 L 4.53125 -15.484375 L 19.109375 -7.75 Z M 17.671875 -4.75 "/></g></g></g><g fill="#ad2b49" fill-opacity="1"><g transform="translate(337.881464, 47.945712)"><g><path d="M 1.625 10.875 L 0 10.375 L 13.8125 -32.515625 L 15.484375 -31.984375 Z M 1.625 10.875 "/></g></g></g><g fill="#ad2b49" fill-opacity="1"><g transform="translate(353.367344, 47.945712)"><g><path d="M 3.71875 -26.234375 L 19.109375 -17.84375 L 19.109375 -13.140625 L 3.71875 -4.75 L 2.265625 -7.75 L 16.84375 -15.484375 L 2.265625 -23.234375 Z M 3.71875 -26.234375 "/></g></g></g></svg>